<svg 
 xmlns="http://www.w3.org/2000/svg"
 xmlns:xlink="http://www.w3.org/1999/xlink"
 width="167px" height="226px">
<path fill-rule="evenodd"  fill="rgb(255, 255, 255)"
 d="M153.125,225.996 L121.082,225.996 L78.658,162.192 L132.421,105.868 L166.994,199.784 L153.125,225.996 ZM130.364,116.925 L86.855,162.892 L124.246,219.746 L150.079,219.746 L160.957,198.779 L130.364,116.925 ZM147.020,212.891 L126.965,212.891 L94.334,163.699 L127.985,128.619 L154.158,198.376 L147.020,212.891 ZM37.103,99.697 L73.807,-0.008 L93.445,-0.008 L128.705,95.774 L73.176,153.948 L37.103,99.697 ZM119.827,93.539 L88.895,8.056 L78.358,8.056 L46.066,97.571 L73.939,141.119 L119.827,93.539 ZM82.437,14.911 L84.816,14.508 L112.009,91.523 L75.298,131.441 L52.524,97.168 L82.437,14.911 ZM13.517,225.996 L-0.002,200.491 L33.092,110.593 L109.826,225.996 L13.517,225.996 ZM6.976,199.182 L17.513,218.940 L97.733,219.343 L33.829,124.183 L6.976,199.182 ZM21.252,211.682 L13.774,197.569 L35.373,137.893 L85.156,212.085 L21.252,211.682 Z"/>
</svg>